<mxfile host="app.diagrams.net" agent="Mozilla/5.0 (Windows NT 10.0; Win64; x64) AppleWebKit/537.36 (KHTML, like Gecko) Chrome/132.0.0.0 Safari/537.36" version="26.0.10">
  <diagram id="2f404044-711c-603c-8f00-f6bb4c023d3c" name="Page-1">
    <mxGraphModel dx="1960" dy="978" grid="0" gridSize="10" guides="1" tooltips="1" connect="1" arrows="1" fold="1" page="1" pageScale="1" pageWidth="827" pageHeight="1169" background="none" math="0" shadow="0">
      <root>
        <mxCell id="0" />
        <mxCell id="1" parent="0" />
        <mxCell id="nAowUgFZZCZa8e_7j0hr-621" value="" style="group;fillColor=default;gradientColor=none;rounded=0;glass=0;shadow=0;strokeWidth=1;" vertex="1" connectable="0" parent="1">
          <mxGeometry x="160" y="240" width="1320" height="765" as="geometry" />
        </mxCell>
        <mxCell id="nAowUgFZZCZa8e_7j0hr-587" value="" style="group" vertex="1" connectable="0" parent="nAowUgFZZCZa8e_7j0hr-621">
          <mxGeometry width="1320" height="760" as="geometry" />
        </mxCell>
        <mxCell id="63" value="" style="swimlane;shadow=0;align=right;startSize=0;collapsible=0;strokeWidth=3;labelBackgroundColor=none;" parent="nAowUgFZZCZa8e_7j0hr-587" vertex="1">
          <mxGeometry width="1320" height="760" as="geometry" />
        </mxCell>
        <mxCell id="322" style="edgeStyle=orthogonalEdgeStyle;rounded=0;html=1;labelBackgroundColor=none;startArrow=classic;startFill=1;startSize=4;endArrow=classic;endFill=1;endSize=4;jettySize=auto;orthogonalLoop=1;strokeWidth=2;fontSize=12;fontColor=default;entryX=1;entryY=0.25;" parent="63" target="296" edge="1">
          <mxGeometry relative="1" as="geometry">
            <Array as="points">
              <mxPoint x="465" y="37" />
              <mxPoint x="935" y="37" />
              <mxPoint x="935" y="299" />
            </Array>
            <mxPoint x="465" y="333.63932022500217" as="sourcePoint" />
          </mxGeometry>
        </mxCell>
        <mxCell id="102" value="DATA SOURCES" style="text;html=1;align=left;verticalAlign=top;shadow=0;dashed=0;strokeColor=none;fillColor=none;labelBackgroundColor=none;fontStyle=1;fontSize=16;spacingLeft=5;" parent="63" vertex="1">
          <mxGeometry width="120" height="20" as="geometry" />
        </mxCell>
        <mxCell id="nAowUgFZZCZa8e_7j0hr-443" value="" style="group" vertex="1" connectable="0" parent="63">
          <mxGeometry x="30" y="460" width="60" height="100" as="geometry" />
        </mxCell>
        <mxCell id="nAowUgFZZCZa8e_7j0hr-440" value="" style="verticalLabelPosition=bottom;aspect=fixed;html=1;shape=mxgraph.salesforce.data;" vertex="1" parent="nAowUgFZZCZa8e_7j0hr-443">
          <mxGeometry x="5.700000000000042" width="48.6" height="60" as="geometry" />
        </mxCell>
        <mxCell id="nAowUgFZZCZa8e_7j0hr-441" value="Enterprise &amp;amp; Internal Databases" style="text;html=1;align=center;verticalAlign=middle;whiteSpace=wrap;rounded=0;" vertex="1" parent="nAowUgFZZCZa8e_7j0hr-443">
          <mxGeometry y="70" width="60" height="30" as="geometry" />
        </mxCell>
        <mxCell id="nAowUgFZZCZa8e_7j0hr-445" value="" style="group" vertex="1" connectable="0" parent="63">
          <mxGeometry x="35" y="267.5" width="60" height="97.5" as="geometry" />
        </mxCell>
        <mxCell id="nAowUgFZZCZa8e_7j0hr-453" value="" style="group" vertex="1" connectable="0" parent="nAowUgFZZCZa8e_7j0hr-445">
          <mxGeometry width="60" height="97.5" as="geometry" />
        </mxCell>
        <mxCell id="nAowUgFZZCZa8e_7j0hr-465" value="" style="group" vertex="1" connectable="0" parent="nAowUgFZZCZa8e_7j0hr-453">
          <mxGeometry y="40" width="60" height="97.5" as="geometry" />
        </mxCell>
        <mxCell id="nAowUgFZZCZa8e_7j0hr-437" value="" style="aspect=fixed;sketch=0;html=1;dashed=0;whitespace=wrap;verticalLabelPosition=bottom;verticalAlign=top;fillColor=#2875E2;strokeColor=#ffffff;points=[[0.005,0.63,0],[0.1,0.2,0],[0.9,0.2,0],[0.5,0,0],[0.995,0.63,0],[0.72,0.99,0],[0.5,1,0],[0.28,0.99,0]];shape=mxgraph.kubernetes.icon2;prIcon=api;container=1;" vertex="1" collapsed="1" parent="nAowUgFZZCZa8e_7j0hr-465">
          <mxGeometry x="5" width="50" height="40" as="geometry">
            <mxRectangle x="5" width="50" height="48" as="alternateBounds" />
          </mxGeometry>
        </mxCell>
        <mxCell id="nAowUgFZZCZa8e_7j0hr-439" value="ESG APIs" style="text;html=1;align=center;verticalAlign=middle;whiteSpace=wrap;rounded=0;" vertex="1" parent="nAowUgFZZCZa8e_7j0hr-465">
          <mxGeometry y="67.5" width="60" height="30" as="geometry" />
        </mxCell>
        <mxCell id="nAowUgFZZCZa8e_7j0hr-454" value="" style="group" vertex="1" connectable="0" parent="63">
          <mxGeometry x="30" y="110" width="70" height="131" as="geometry" />
        </mxCell>
        <mxCell id="nAowUgFZZCZa8e_7j0hr-435" value="" style="sketch=0;outlineConnect=0;fontColor=#232F3E;gradientColor=none;fillColor=#7AA116;strokeColor=none;dashed=0;verticalLabelPosition=bottom;verticalAlign=top;align=center;html=1;fontSize=12;fontStyle=0;aspect=fixed;pointerEvents=1;shape=mxgraph.aws4.sensor;" vertex="1" parent="nAowUgFZZCZa8e_7j0hr-454">
          <mxGeometry width="70" height="78" as="geometry" />
        </mxCell>
        <mxCell id="nAowUgFZZCZa8e_7j0hr-436" value="IoT Sensors &amp;amp; Edge Devices" style="text;html=1;align=center;verticalAlign=middle;whiteSpace=wrap;rounded=0;" vertex="1" parent="nAowUgFZZCZa8e_7j0hr-454">
          <mxGeometry y="101" width="60" height="30" as="geometry" />
        </mxCell>
        <mxCell id="nAowUgFZZCZa8e_7j0hr-461" value="" style="group" vertex="1" connectable="0" parent="63">
          <mxGeometry x="35" y="625" width="60" height="85" as="geometry" />
        </mxCell>
        <mxCell id="nAowUgFZZCZa8e_7j0hr-459" value="" style="html=1;verticalLabelPosition=bottom;align=center;labelBackgroundColor=#ffffff;verticalAlign=top;strokeWidth=2;strokeColor=#0080F0;shadow=0;dashed=0;shape=mxgraph.ios7.icons.location;" vertex="1" parent="nAowUgFZZCZa8e_7j0hr-461">
          <mxGeometry x="13" width="24" height="30" as="geometry" />
        </mxCell>
        <mxCell id="nAowUgFZZCZa8e_7j0hr-460" value="Geospatial Data" style="text;html=1;align=center;verticalAlign=middle;whiteSpace=wrap;rounded=0;" vertex="1" parent="nAowUgFZZCZa8e_7j0hr-461">
          <mxGeometry y="55" width="60" height="30" as="geometry" />
        </mxCell>
        <mxCell id="nAowUgFZZCZa8e_7j0hr-471" value="" style="group" vertex="1" connectable="0" parent="63">
          <mxGeometry x="214" y="80" width="59" height="100" as="geometry" />
        </mxCell>
        <mxCell id="nAowUgFZZCZa8e_7j0hr-468" value="" style="image;sketch=0;aspect=fixed;html=1;points=[];align=center;fontSize=12;image=img/lib/mscae/Azure_IoT_Hub.svg;" vertex="1" parent="nAowUgFZZCZa8e_7j0hr-471">
          <mxGeometry x="4.916666666666666" width="49.166666666666664" height="49.166666666666664" as="geometry" />
        </mxCell>
        <mxCell id="nAowUgFZZCZa8e_7j0hr-470" value="Azure IOT Hub" style="text;html=1;align=center;verticalAlign=middle;whiteSpace=wrap;rounded=0;" vertex="1" parent="nAowUgFZZCZa8e_7j0hr-471">
          <mxGeometry y="70" width="59" height="30" as="geometry" />
        </mxCell>
        <mxCell id="nAowUgFZZCZa8e_7j0hr-472" style="edgeStyle=orthogonalEdgeStyle;rounded=0;orthogonalLoop=1;jettySize=auto;html=1;" edge="1" parent="63" source="nAowUgFZZCZa8e_7j0hr-435" target="nAowUgFZZCZa8e_7j0hr-468">
          <mxGeometry relative="1" as="geometry" />
        </mxCell>
        <mxCell id="nAowUgFZZCZa8e_7j0hr-473" value="DATA INGESTION &amp;amp;&lt;div&gt;PROCESSING&lt;/div&gt;" style="text;html=1;align=center;verticalAlign=top;shadow=0;dashed=0;strokeColor=none;fillColor=none;labelBackgroundColor=none;fontStyle=1;fontSize=16;spacingLeft=5;" vertex="1" parent="63">
          <mxGeometry x="313.5" y="1" width="120" height="30" as="geometry" />
        </mxCell>
        <mxCell id="nAowUgFZZCZa8e_7j0hr-474" value="" style="image;aspect=fixed;html=1;points=[];align=center;fontSize=12;image=img/lib/azure2/app_services/API_Management_Services.svg;" vertex="1" parent="63">
          <mxGeometry x="214" y="297.5" width="65" height="60" as="geometry" />
        </mxCell>
        <mxCell id="nAowUgFZZCZa8e_7j0hr-475" value="Azure API&amp;nbsp;&lt;div&gt;Management&lt;/div&gt;" style="text;html=1;align=center;verticalAlign=middle;whiteSpace=wrap;rounded=0;" vertex="1" parent="63">
          <mxGeometry x="210.5" y="365" width="60" height="30" as="geometry" />
        </mxCell>
        <mxCell id="nAowUgFZZCZa8e_7j0hr-477" style="edgeStyle=orthogonalEdgeStyle;rounded=0;orthogonalLoop=1;jettySize=auto;html=1;" edge="1" parent="63" source="nAowUgFZZCZa8e_7j0hr-437" target="nAowUgFZZCZa8e_7j0hr-474">
          <mxGeometry relative="1" as="geometry" />
        </mxCell>
        <mxCell id="nAowUgFZZCZa8e_7j0hr-480" value="" style="group" vertex="1" connectable="0" parent="63">
          <mxGeometry x="350" y="300" width="68" height="120" as="geometry" />
        </mxCell>
        <mxCell id="nAowUgFZZCZa8e_7j0hr-478" value="" style="image;aspect=fixed;html=1;points=[];align=center;fontSize=12;image=img/lib/azure2/databases/Data_Factory.svg;" vertex="1" parent="nAowUgFZZCZa8e_7j0hr-480">
          <mxGeometry width="68" height="68" as="geometry" />
        </mxCell>
        <mxCell id="nAowUgFZZCZa8e_7j0hr-479" value="Azure&lt;div&gt;Data Factory&lt;/div&gt;" style="text;html=1;align=center;verticalAlign=middle;whiteSpace=wrap;rounded=0;" vertex="1" parent="nAowUgFZZCZa8e_7j0hr-480">
          <mxGeometry y="90" width="60" height="30" as="geometry" />
        </mxCell>
        <mxCell id="nAowUgFZZCZa8e_7j0hr-482" style="edgeStyle=orthogonalEdgeStyle;rounded=0;orthogonalLoop=1;jettySize=auto;html=1;entryX=-0.085;entryY=0.424;entryDx=0;entryDy=0;entryPerimeter=0;" edge="1" parent="63" source="nAowUgFZZCZa8e_7j0hr-474" target="nAowUgFZZCZa8e_7j0hr-478">
          <mxGeometry relative="1" as="geometry" />
        </mxCell>
        <mxCell id="nAowUgFZZCZa8e_7j0hr-488" style="edgeStyle=orthogonalEdgeStyle;rounded=0;orthogonalLoop=1;jettySize=auto;html=1;" edge="1" parent="63" source="nAowUgFZZCZa8e_7j0hr-440">
          <mxGeometry relative="1" as="geometry">
            <mxPoint x="384" y="430" as="targetPoint" />
          </mxGeometry>
        </mxCell>
        <mxCell id="nAowUgFZZCZa8e_7j0hr-492" style="edgeStyle=orthogonalEdgeStyle;rounded=0;orthogonalLoop=1;jettySize=auto;html=1;" edge="1" parent="63" source="nAowUgFZZCZa8e_7j0hr-459">
          <mxGeometry relative="1" as="geometry">
            <mxPoint x="340" y="351" as="targetPoint" />
            <Array as="points">
              <mxPoint x="300" y="640" />
              <mxPoint x="300" y="351" />
            </Array>
          </mxGeometry>
        </mxCell>
        <mxCell id="nAowUgFZZCZa8e_7j0hr-495" value="" style="group" vertex="1" connectable="0" parent="63">
          <mxGeometry x="351" y="80" width="67" height="100" as="geometry" />
        </mxCell>
        <mxCell id="nAowUgFZZCZa8e_7j0hr-493" value="" style="image;aspect=fixed;html=1;points=[];align=center;fontSize=12;image=img/lib/azure2/analytics/Event_Hubs.svg;" vertex="1" parent="nAowUgFZZCZa8e_7j0hr-495">
          <mxGeometry width="67" height="60" as="geometry" />
        </mxCell>
        <mxCell id="nAowUgFZZCZa8e_7j0hr-494" value="Azure Event&lt;div&gt;Hub&lt;/div&gt;" style="text;html=1;align=center;verticalAlign=middle;whiteSpace=wrap;rounded=0;" vertex="1" parent="nAowUgFZZCZa8e_7j0hr-495">
          <mxGeometry x="7" y="70" width="60" height="30" as="geometry" />
        </mxCell>
        <mxCell id="nAowUgFZZCZa8e_7j0hr-496" style="edgeStyle=orthogonalEdgeStyle;rounded=0;orthogonalLoop=1;jettySize=auto;html=1;entryX=-0.009;entryY=0.423;entryDx=0;entryDy=0;entryPerimeter=0;" edge="1" parent="63" source="nAowUgFZZCZa8e_7j0hr-468" target="nAowUgFZZCZa8e_7j0hr-493">
          <mxGeometry relative="1" as="geometry" />
        </mxCell>
        <mxCell id="nAowUgFZZCZa8e_7j0hr-506" style="edgeStyle=orthogonalEdgeStyle;rounded=0;orthogonalLoop=1;jettySize=auto;html=1;" edge="1" parent="63" source="nAowUgFZZCZa8e_7j0hr-497" target="nAowUgFZZCZa8e_7j0hr-504">
          <mxGeometry relative="1" as="geometry">
            <Array as="points">
              <mxPoint x="555" y="109" />
            </Array>
          </mxGeometry>
        </mxCell>
        <mxCell id="nAowUgFZZCZa8e_7j0hr-497" value="" style="image;aspect=fixed;html=1;points=[];align=center;fontSize=12;image=img/lib/azure2/analytics/Stream_Analytics_Jobs.svg;" vertex="1" parent="63">
          <mxGeometry x="470" y="80" width="68" height="57.99999999999999" as="geometry" />
        </mxCell>
        <mxCell id="nAowUgFZZCZa8e_7j0hr-503" style="edgeStyle=orthogonalEdgeStyle;rounded=0;orthogonalLoop=1;jettySize=auto;html=1;" edge="1" parent="63" source="nAowUgFZZCZa8e_7j0hr-493" target="nAowUgFZZCZa8e_7j0hr-497">
          <mxGeometry relative="1" as="geometry" />
        </mxCell>
        <mxCell id="nAowUgFZZCZa8e_7j0hr-504" value="" style="image;aspect=fixed;html=1;points=[];align=center;fontSize=12;image=img/lib/azure2/analytics/Data_Lake_Store_Gen1.svg;" vertex="1" parent="63">
          <mxGeometry x="523" y="311.5" width="64" height="52" as="geometry" />
        </mxCell>
        <mxCell id="nAowUgFZZCZa8e_7j0hr-508" style="edgeStyle=orthogonalEdgeStyle;rounded=0;orthogonalLoop=1;jettySize=auto;html=1;entryX=-0.016;entryY=0.429;entryDx=0;entryDy=0;entryPerimeter=0;" edge="1" parent="63" target="nAowUgFZZCZa8e_7j0hr-504">
          <mxGeometry relative="1" as="geometry">
            <mxPoint x="430" y="334" as="sourcePoint" />
          </mxGeometry>
        </mxCell>
        <mxCell id="nAowUgFZZCZa8e_7j0hr-599" style="edgeStyle=orthogonalEdgeStyle;rounded=0;orthogonalLoop=1;jettySize=auto;html=1;entryX=0.5;entryY=1;entryDx=0;entryDy=0;" edge="1" parent="63" source="nAowUgFZZCZa8e_7j0hr-509" target="nAowUgFZZCZa8e_7j0hr-530">
          <mxGeometry relative="1" as="geometry">
            <Array as="points">
              <mxPoint x="944" y="492" />
            </Array>
          </mxGeometry>
        </mxCell>
        <mxCell id="nAowUgFZZCZa8e_7j0hr-509" value="" style="image;aspect=fixed;html=1;points=[];align=center;fontSize=12;image=img/lib/azure2/databases/SQL_Database.svg;" vertex="1" parent="63">
          <mxGeometry x="531" y="460" width="48" height="64" as="geometry" />
        </mxCell>
        <mxCell id="nAowUgFZZCZa8e_7j0hr-511" style="edgeStyle=orthogonalEdgeStyle;rounded=0;orthogonalLoop=1;jettySize=auto;html=1;entryX=-0.021;entryY=0.781;entryDx=0;entryDy=0;entryPerimeter=0;" edge="1" parent="63" target="nAowUgFZZCZa8e_7j0hr-509">
          <mxGeometry relative="1" as="geometry">
            <mxPoint x="440" y="345" as="sourcePoint" />
            <Array as="points">
              <mxPoint x="475" y="345" />
              <mxPoint x="475" y="510" />
            </Array>
          </mxGeometry>
        </mxCell>
        <mxCell id="nAowUgFZZCZa8e_7j0hr-601" style="edgeStyle=orthogonalEdgeStyle;rounded=0;orthogonalLoop=1;jettySize=auto;html=1;entryX=0.75;entryY=1;entryDx=0;entryDy=0;" edge="1" parent="63" source="nAowUgFZZCZa8e_7j0hr-512" target="nAowUgFZZCZa8e_7j0hr-530">
          <mxGeometry relative="1" as="geometry">
            <Array as="points">
              <mxPoint x="680" y="665" />
              <mxPoint x="680" y="735" />
              <mxPoint x="959" y="735" />
            </Array>
          </mxGeometry>
        </mxCell>
        <mxCell id="nAowUgFZZCZa8e_7j0hr-614" style="edgeStyle=orthogonalEdgeStyle;rounded=0;orthogonalLoop=1;jettySize=auto;html=1;" edge="1" parent="63" source="nAowUgFZZCZa8e_7j0hr-512">
          <mxGeometry relative="1" as="geometry">
            <mxPoint x="750" y="654.0000000000002" as="targetPoint" />
          </mxGeometry>
        </mxCell>
        <mxCell id="nAowUgFZZCZa8e_7j0hr-512" value="" style="image;aspect=fixed;html=1;points=[];align=center;fontSize=12;image=img/lib/azure2/databases/Azure_Cosmos_DB.svg;" vertex="1" parent="63">
          <mxGeometry x="531" y="620" width="68" height="68" as="geometry" />
        </mxCell>
        <mxCell id="nAowUgFZZCZa8e_7j0hr-514" style="edgeStyle=orthogonalEdgeStyle;rounded=0;orthogonalLoop=1;jettySize=auto;html=1;entryX=0.013;entryY=0.675;entryDx=0;entryDy=0;entryPerimeter=0;" edge="1" parent="63" target="nAowUgFZZCZa8e_7j0hr-512">
          <mxGeometry relative="1" as="geometry">
            <mxPoint x="430" y="355" as="sourcePoint" />
            <Array as="points">
              <mxPoint x="440" y="355" />
              <mxPoint x="440" y="666" />
            </Array>
          </mxGeometry>
        </mxCell>
        <mxCell id="nAowUgFZZCZa8e_7j0hr-543" value="Structured API&lt;div&gt;Data&lt;/div&gt;" style="edgeLabel;html=1;align=center;verticalAlign=middle;resizable=0;points=[];" vertex="1" connectable="0" parent="nAowUgFZZCZa8e_7j0hr-514">
          <mxGeometry x="-0.4732" y="-1" relative="1" as="geometry">
            <mxPoint x="40" y="1" as="offset" />
          </mxGeometry>
        </mxCell>
        <mxCell id="nAowUgFZZCZa8e_7j0hr-544" value="Semi &amp;amp; unstructured&lt;div&gt;API Data&lt;/div&gt;" style="edgeLabel;html=1;align=center;verticalAlign=middle;resizable=0;points=[];" vertex="1" connectable="0" parent="nAowUgFZZCZa8e_7j0hr-514">
          <mxGeometry x="0.3495" y="-3" relative="1" as="geometry">
            <mxPoint y="21" as="offset" />
          </mxGeometry>
        </mxCell>
        <mxCell id="nAowUgFZZCZa8e_7j0hr-517" value="" style="image;aspect=fixed;html=1;points=[];align=center;fontSize=12;image=img/lib/azure2/analytics/Azure_Databricks.svg;" vertex="1" parent="63">
          <mxGeometry x="690" y="96" width="62.8" height="68" as="geometry" />
        </mxCell>
        <mxCell id="nAowUgFZZCZa8e_7j0hr-529" value="" style="image;aspect=fixed;html=1;points=[];align=center;fontSize=12;image=img/lib/azure2/ai_machine_learning/Machine_Learning.svg;" vertex="1" parent="63">
          <mxGeometry x="910" y="365" width="64" height="68" as="geometry" />
        </mxCell>
        <mxCell id="nAowUgFZZCZa8e_7j0hr-542" style="edgeStyle=orthogonalEdgeStyle;rounded=0;orthogonalLoop=1;jettySize=auto;html=1;" edge="1" parent="63" target="nAowUgFZZCZa8e_7j0hr-529">
          <mxGeometry relative="1" as="geometry">
            <mxPoint x="770" y="145" as="sourcePoint" />
            <mxPoint x="870" y="350" as="targetPoint" />
            <Array as="points">
              <mxPoint x="790" y="145" />
              <mxPoint x="790" y="265" />
              <mxPoint x="882" y="265" />
              <mxPoint x="882" y="399" />
            </Array>
          </mxGeometry>
        </mxCell>
        <mxCell id="nAowUgFZZCZa8e_7j0hr-532" value="" style="image;aspect=fixed;html=1;points=[];align=center;fontSize=12;image=img/lib/azure2/ai_machine_learning/Azure_OpenAI.svg;" vertex="1" parent="63">
          <mxGeometry x="1060" y="241.5" width="68" height="68" as="geometry" />
        </mxCell>
        <mxCell id="nAowUgFZZCZa8e_7j0hr-530" value="Azure ML" style="text;html=1;align=center;verticalAlign=middle;whiteSpace=wrap;rounded=0;" vertex="1" parent="63">
          <mxGeometry x="914" y="433" width="60" height="30" as="geometry" />
        </mxCell>
        <mxCell id="nAowUgFZZCZa8e_7j0hr-501" value="Azure Steam&lt;div&gt;Analytics&lt;/div&gt;" style="text;html=1;align=center;verticalAlign=middle;whiteSpace=wrap;rounded=0;" vertex="1" parent="nAowUgFZZCZa8e_7j0hr-587">
          <mxGeometry x="480" y="150" width="60" height="30" as="geometry" />
        </mxCell>
        <mxCell id="nAowUgFZZCZa8e_7j0hr-505" value="Azure Data Lake&lt;div&gt;Storage&lt;/div&gt;" style="text;html=1;align=center;verticalAlign=middle;whiteSpace=wrap;rounded=0;" vertex="1" parent="nAowUgFZZCZa8e_7j0hr-587">
          <mxGeometry x="530" y="380" width="60" height="30" as="geometry" />
        </mxCell>
        <mxCell id="nAowUgFZZCZa8e_7j0hr-510" value="Azure SQL" style="text;html=1;align=center;verticalAlign=middle;whiteSpace=wrap;rounded=0;" vertex="1" parent="nAowUgFZZCZa8e_7j0hr-587">
          <mxGeometry x="530" y="540" width="60" height="30" as="geometry" />
        </mxCell>
        <mxCell id="nAowUgFZZCZa8e_7j0hr-513" value="Azure&lt;div&gt;Cosmos&lt;/div&gt;" style="text;html=1;align=center;verticalAlign=middle;whiteSpace=wrap;rounded=0;" vertex="1" parent="nAowUgFZZCZa8e_7j0hr-587">
          <mxGeometry x="540" y="690" width="60" height="30" as="geometry" />
        </mxCell>
        <mxCell id="nAowUgFZZCZa8e_7j0hr-515" value="" style="line;strokeWidth=3;direction=south;html=1;shadow=0;labelBackgroundColor=none;fillColor=none;fontSize=12;align=right;" vertex="1" parent="nAowUgFZZCZa8e_7j0hr-587">
          <mxGeometry x="635" y="1" width="5" height="319" as="geometry" />
        </mxCell>
        <mxCell id="nAowUgFZZCZa8e_7j0hr-516" value="AI &amp;amp; ANALYTICS" style="text;html=1;align=center;verticalAlign=top;shadow=0;dashed=0;strokeColor=none;fillColor=none;labelBackgroundColor=none;fontStyle=1;fontSize=16;spacingLeft=5;" vertex="1" parent="nAowUgFZZCZa8e_7j0hr-587">
          <mxGeometry x="723.5" y="1" width="120" height="30" as="geometry" />
        </mxCell>
        <mxCell id="nAowUgFZZCZa8e_7j0hr-518" value="Azure&lt;div&gt;Databricks&lt;/div&gt;" style="text;html=1;align=center;verticalAlign=middle;whiteSpace=wrap;rounded=0;" vertex="1" parent="nAowUgFZZCZa8e_7j0hr-587">
          <mxGeometry x="690" y="180" width="60" height="30" as="geometry" />
        </mxCell>
        <mxCell id="nAowUgFZZCZa8e_7j0hr-519" style="edgeStyle=orthogonalEdgeStyle;rounded=0;orthogonalLoop=1;jettySize=auto;html=1;entryX=0.75;entryY=1;entryDx=0;entryDy=0;" edge="1" parent="nAowUgFZZCZa8e_7j0hr-587">
          <mxGeometry relative="1" as="geometry">
            <mxPoint x="577" y="337.5" as="sourcePoint" />
            <mxPoint x="725" y="210" as="targetPoint" />
          </mxGeometry>
        </mxCell>
        <mxCell id="nAowUgFZZCZa8e_7j0hr-576" style="edgeStyle=orthogonalEdgeStyle;rounded=0;orthogonalLoop=1;jettySize=auto;html=1;" edge="1" parent="nAowUgFZZCZa8e_7j0hr-587" source="nAowUgFZZCZa8e_7j0hr-520">
          <mxGeometry relative="1" as="geometry">
            <mxPoint x="1110" y="125" as="targetPoint" />
          </mxGeometry>
        </mxCell>
        <mxCell id="nAowUgFZZCZa8e_7j0hr-520" value="" style="image;aspect=fixed;html=1;points=[];align=center;fontSize=12;image=img/lib/azure2/analytics/Azure_Synapse_Analytics.svg;" vertex="1" parent="nAowUgFZZCZa8e_7j0hr-587">
          <mxGeometry x="830" y="91" width="60" height="69" as="geometry" />
        </mxCell>
        <mxCell id="nAowUgFZZCZa8e_7j0hr-521" value="Azure Synapse" style="text;html=1;align=center;verticalAlign=middle;whiteSpace=wrap;rounded=0;" vertex="1" parent="nAowUgFZZCZa8e_7j0hr-587">
          <mxGeometry x="830" y="180" width="60" height="30" as="geometry" />
        </mxCell>
        <mxCell id="nAowUgFZZCZa8e_7j0hr-522" style="edgeStyle=orthogonalEdgeStyle;rounded=0;orthogonalLoop=1;jettySize=auto;html=1;entryX=0.167;entryY=0.565;entryDx=0;entryDy=0;entryPerimeter=0;" edge="1" parent="nAowUgFZZCZa8e_7j0hr-587">
          <mxGeometry relative="1" as="geometry">
            <mxPoint x="770" y="130" as="sourcePoint" />
            <mxPoint x="820.02" y="129.9849999999999" as="targetPoint" />
          </mxGeometry>
        </mxCell>
        <mxCell id="nAowUgFZZCZa8e_7j0hr-577" style="edgeStyle=orthogonalEdgeStyle;rounded=0;orthogonalLoop=1;jettySize=auto;html=1;" edge="1" parent="nAowUgFZZCZa8e_7j0hr-587" source="nAowUgFZZCZa8e_7j0hr-523" target="nAowUgFZZCZa8e_7j0hr-568">
          <mxGeometry relative="1" as="geometry" />
        </mxCell>
        <mxCell id="nAowUgFZZCZa8e_7j0hr-523" value="" style="image;aspect=fixed;html=1;points=[];align=center;fontSize=12;image=img/lib/azure2/analytics/Power_BI_Embedded.svg;" vertex="1" parent="nAowUgFZZCZa8e_7j0hr-587">
          <mxGeometry x="1120" y="90" width="51" height="68" as="geometry" />
        </mxCell>
        <mxCell id="nAowUgFZZCZa8e_7j0hr-524" value="Power BI" style="text;html=1;align=center;verticalAlign=middle;whiteSpace=wrap;rounded=0;" vertex="1" parent="nAowUgFZZCZa8e_7j0hr-587">
          <mxGeometry x="1120" y="160" width="60" height="30" as="geometry" />
        </mxCell>
        <mxCell id="nAowUgFZZCZa8e_7j0hr-612" style="edgeStyle=orthogonalEdgeStyle;rounded=0;orthogonalLoop=1;jettySize=auto;html=1;" edge="1" parent="nAowUgFZZCZa8e_7j0hr-587" source="nAowUgFZZCZa8e_7j0hr-533" target="nAowUgFZZCZa8e_7j0hr-509">
          <mxGeometry relative="1" as="geometry">
            <Array as="points">
              <mxPoint x="1110" y="425" />
              <mxPoint x="1000" y="425" />
              <mxPoint x="1000" y="505" />
            </Array>
          </mxGeometry>
        </mxCell>
        <mxCell id="nAowUgFZZCZa8e_7j0hr-533" value="Azure Open AI" style="text;html=1;align=center;verticalAlign=middle;whiteSpace=wrap;rounded=0;" vertex="1" parent="nAowUgFZZCZa8e_7j0hr-587">
          <mxGeometry x="1060" y="310" width="60" height="30" as="geometry" />
        </mxCell>
        <mxCell id="nAowUgFZZCZa8e_7j0hr-613" style="edgeStyle=orthogonalEdgeStyle;rounded=0;orthogonalLoop=1;jettySize=auto;html=1;" edge="1" parent="nAowUgFZZCZa8e_7j0hr-587" source="nAowUgFZZCZa8e_7j0hr-537">
          <mxGeometry relative="1" as="geometry">
            <mxPoint x="1090" y="625" as="targetPoint" />
          </mxGeometry>
        </mxCell>
        <mxCell id="nAowUgFZZCZa8e_7j0hr-537" value="" style="image;aspect=fixed;html=1;points=[];align=center;fontSize=12;image=img/lib/azure2/ai_machine_learning/Cognitive_Services.svg;" vertex="1" parent="nAowUgFZZCZa8e_7j0hr-587">
          <mxGeometry x="760" y="600" width="68" height="48" as="geometry" />
        </mxCell>
        <mxCell id="nAowUgFZZCZa8e_7j0hr-539" value="Azure Cognitive" style="text;html=1;align=center;verticalAlign=middle;whiteSpace=wrap;rounded=0;" vertex="1" parent="nAowUgFZZCZa8e_7j0hr-587">
          <mxGeometry x="760" y="660" width="60" height="30" as="geometry" />
        </mxCell>
        <mxCell id="nAowUgFZZCZa8e_7j0hr-549" value="" style="line;strokeWidth=3;direction=south;html=1;shadow=0;labelBackgroundColor=none;fillColor=none;fontSize=12;align=right;" vertex="1" parent="nAowUgFZZCZa8e_7j0hr-587">
          <mxGeometry x="635" y="351" width="5" height="119" as="geometry" />
        </mxCell>
        <mxCell id="nAowUgFZZCZa8e_7j0hr-550" value="" style="line;strokeWidth=3;direction=south;html=1;shadow=0;labelBackgroundColor=none;fillColor=none;fontSize=12;align=right;" vertex="1" parent="nAowUgFZZCZa8e_7j0hr-587">
          <mxGeometry x="635" y="520" width="5" height="120" as="geometry" />
        </mxCell>
        <mxCell id="nAowUgFZZCZa8e_7j0hr-551" value="" style="line;strokeWidth=3;direction=south;html=1;shadow=0;labelBackgroundColor=none;fillColor=none;fontSize=12;align=right;" vertex="1" parent="nAowUgFZZCZa8e_7j0hr-587">
          <mxGeometry x="635" y="680" width="5" height="80" as="geometry" />
        </mxCell>
        <mxCell id="nAowUgFZZCZa8e_7j0hr-552" value="" style="line;strokeWidth=3;direction=south;html=1;shadow=0;labelBackgroundColor=none;fillColor=none;fontSize=12;align=right;" vertex="1" parent="nAowUgFZZCZa8e_7j0hr-587">
          <mxGeometry x="145" y="1" width="5" height="139" as="geometry" />
        </mxCell>
        <mxCell id="nAowUgFZZCZa8e_7j0hr-553" value="" style="line;strokeWidth=3;direction=south;html=1;shadow=0;labelBackgroundColor=none;fillColor=none;fontSize=12;align=right;" vertex="1" parent="nAowUgFZZCZa8e_7j0hr-587">
          <mxGeometry x="145" y="161" width="5" height="159" as="geometry" />
        </mxCell>
        <mxCell id="nAowUgFZZCZa8e_7j0hr-554" value="" style="line;strokeWidth=3;direction=south;html=1;shadow=0;labelBackgroundColor=none;fillColor=none;fontSize=12;align=right;" vertex="1" parent="nAowUgFZZCZa8e_7j0hr-587">
          <mxGeometry x="145" y="341" width="5" height="139" as="geometry" />
        </mxCell>
        <mxCell id="nAowUgFZZCZa8e_7j0hr-555" value="" style="line;strokeWidth=3;direction=south;html=1;shadow=0;labelBackgroundColor=none;fillColor=none;fontSize=12;align=right;" vertex="1" parent="nAowUgFZZCZa8e_7j0hr-587">
          <mxGeometry x="145" y="501" width="5" height="129" as="geometry" />
        </mxCell>
        <mxCell id="nAowUgFZZCZa8e_7j0hr-556" value="" style="line;strokeWidth=3;direction=south;html=1;shadow=0;labelBackgroundColor=none;fillColor=none;fontSize=12;align=right;" vertex="1" parent="nAowUgFZZCZa8e_7j0hr-587">
          <mxGeometry x="145" y="651" width="5" height="109" as="geometry" />
        </mxCell>
        <mxCell id="nAowUgFZZCZa8e_7j0hr-557" value="DASHBOARDS &amp;amp;&amp;nbsp;&lt;div&gt;VISUALIZATIONS&lt;/div&gt;" style="text;html=1;align=center;verticalAlign=top;shadow=0;dashed=0;strokeColor=none;fillColor=none;labelBackgroundColor=none;fontStyle=1;fontSize=16;spacingLeft=5;" vertex="1" parent="nAowUgFZZCZa8e_7j0hr-587">
          <mxGeometry x="1113.5" y="1" width="120" height="30" as="geometry" />
        </mxCell>
        <mxCell id="nAowUgFZZCZa8e_7j0hr-558" value="" style="image;aspect=fixed;html=1;points=[];align=center;fontSize=12;image=img/lib/azure2/app_services/API_Management_Services.svg;" vertex="1" parent="nAowUgFZZCZa8e_7j0hr-587">
          <mxGeometry x="1094" y="597.5" width="65" height="60" as="geometry" />
        </mxCell>
        <mxCell id="nAowUgFZZCZa8e_7j0hr-580" style="edgeStyle=orthogonalEdgeStyle;rounded=0;orthogonalLoop=1;jettySize=auto;html=1;entryX=0.5;entryY=1;entryDx=0;entryDy=0;" edge="1" parent="nAowUgFZZCZa8e_7j0hr-587" source="nAowUgFZZCZa8e_7j0hr-559" target="nAowUgFZZCZa8e_7j0hr-570">
          <mxGeometry relative="1" as="geometry">
            <Array as="points">
              <mxPoint x="1130" y="710" />
              <mxPoint x="1250" y="710" />
            </Array>
          </mxGeometry>
        </mxCell>
        <mxCell id="nAowUgFZZCZa8e_7j0hr-559" value="Azure API&lt;div&gt;Management&lt;/div&gt;" style="text;html=1;align=center;verticalAlign=middle;whiteSpace=wrap;rounded=0;" vertex="1" parent="nAowUgFZZCZa8e_7j0hr-587">
          <mxGeometry x="1090" y="660" width="60" height="30" as="geometry" />
        </mxCell>
        <mxCell id="nAowUgFZZCZa8e_7j0hr-568" value="" style="image;aspect=fixed;html=1;points=[];align=center;fontSize=12;image=img/lib/azure2/app_services/App_Services.svg;" vertex="1" parent="nAowUgFZZCZa8e_7j0hr-587">
          <mxGeometry x="1210" y="360" width="68" height="68" as="geometry" />
        </mxCell>
        <mxCell id="nAowUgFZZCZa8e_7j0hr-570" value="Azure Web Apps" style="text;html=1;align=center;verticalAlign=middle;whiteSpace=wrap;rounded=0;" vertex="1" parent="nAowUgFZZCZa8e_7j0hr-587">
          <mxGeometry x="1220" y="440" width="60" height="30" as="geometry" />
        </mxCell>
        <mxCell id="nAowUgFZZCZa8e_7j0hr-603" style="edgeStyle=orthogonalEdgeStyle;rounded=0;orthogonalLoop=1;jettySize=auto;html=1;entryX=0;entryY=0.5;entryDx=0;entryDy=0;" edge="1" parent="nAowUgFZZCZa8e_7j0hr-587" source="nAowUgFZZCZa8e_7j0hr-532" target="nAowUgFZZCZa8e_7j0hr-524">
          <mxGeometry relative="1" as="geometry" />
        </mxCell>
        <mxCell id="nAowUgFZZCZa8e_7j0hr-604" style="edgeStyle=orthogonalEdgeStyle;rounded=0;orthogonalLoop=1;jettySize=auto;html=1;entryX=0.5;entryY=1;entryDx=0;entryDy=0;" edge="1" parent="nAowUgFZZCZa8e_7j0hr-587" source="nAowUgFZZCZa8e_7j0hr-529" target="nAowUgFZZCZa8e_7j0hr-533">
          <mxGeometry relative="1" as="geometry" />
        </mxCell>
        <mxCell id="nAowUgFZZCZa8e_7j0hr-605" style="edgeStyle=orthogonalEdgeStyle;rounded=0;orthogonalLoop=1;jettySize=auto;html=1;entryX=0.482;entryY=0.073;entryDx=0;entryDy=0;entryPerimeter=0;" edge="1" parent="nAowUgFZZCZa8e_7j0hr-587" source="nAowUgFZZCZa8e_7j0hr-529" target="nAowUgFZZCZa8e_7j0hr-558">
          <mxGeometry relative="1" as="geometry">
            <Array as="points">
              <mxPoint x="1125" y="415" />
            </Array>
          </mxGeometry>
        </mxCell>
        <mxCell id="nAowUgFZZCZa8e_7j0hr-606" value="" style="image;aspect=fixed;html=1;points=[];align=center;fontSize=12;image=img/lib/azure2/ai_machine_learning/Anomaly_Detector.svg;" vertex="1" parent="nAowUgFZZCZa8e_7j0hr-621">
          <mxGeometry x="729" y="355" width="68" height="68" as="geometry" />
        </mxCell>
        <mxCell id="nAowUgFZZCZa8e_7j0hr-607" value="Anomaly Detector" style="text;html=1;align=center;verticalAlign=middle;whiteSpace=wrap;rounded=0;" vertex="1" parent="nAowUgFZZCZa8e_7j0hr-621">
          <mxGeometry x="740" y="425" width="60" height="30" as="geometry" />
        </mxCell>
        <mxCell id="nAowUgFZZCZa8e_7j0hr-608" style="edgeStyle=orthogonalEdgeStyle;rounded=0;orthogonalLoop=1;jettySize=auto;html=1;" edge="1" parent="nAowUgFZZCZa8e_7j0hr-621" source="nAowUgFZZCZa8e_7j0hr-497" target="nAowUgFZZCZa8e_7j0hr-606">
          <mxGeometry relative="1" as="geometry">
            <Array as="points">
              <mxPoint x="610" y="105" />
              <mxPoint x="610" y="325" />
              <mxPoint x="763" y="325" />
            </Array>
          </mxGeometry>
        </mxCell>
        <mxCell id="nAowUgFZZCZa8e_7j0hr-615" style="edgeStyle=orthogonalEdgeStyle;rounded=0;orthogonalLoop=1;jettySize=auto;html=1;entryX=0.015;entryY=0.294;entryDx=0;entryDy=0;entryPerimeter=0;" edge="1" parent="nAowUgFZZCZa8e_7j0hr-621" source="nAowUgFZZCZa8e_7j0hr-509" target="nAowUgFZZCZa8e_7j0hr-606">
          <mxGeometry relative="1" as="geometry">
            <Array as="points">
              <mxPoint x="654" y="475" />
              <mxPoint x="654" y="375" />
            </Array>
          </mxGeometry>
        </mxCell>
        <mxCell id="nAowUgFZZCZa8e_7j0hr-617" style="edgeStyle=orthogonalEdgeStyle;rounded=0;orthogonalLoop=1;jettySize=auto;html=1;entryX=-0.012;entryY=0.622;entryDx=0;entryDy=0;entryPerimeter=0;" edge="1" parent="nAowUgFZZCZa8e_7j0hr-621" source="nAowUgFZZCZa8e_7j0hr-606" target="nAowUgFZZCZa8e_7j0hr-558">
          <mxGeometry relative="1" as="geometry">
            <Array as="points">
              <mxPoint x="850" y="389" />
              <mxPoint x="850" y="555" />
              <mxPoint x="1000" y="555" />
              <mxPoint x="1000" y="635" />
            </Array>
          </mxGeometry>
        </mxCell>
        <mxCell id="nAowUgFZZCZa8e_7j0hr-618" value="" style="line;strokeWidth=3;direction=south;html=1;shadow=0;labelBackgroundColor=none;fillColor=none;fontSize=12;align=right;" vertex="1" parent="nAowUgFZZCZa8e_7j0hr-621">
          <mxGeometry x="1015" y="1" width="5" height="384" as="geometry" />
        </mxCell>
        <mxCell id="nAowUgFZZCZa8e_7j0hr-619" value="" style="line;strokeWidth=3;direction=south;html=1;shadow=0;labelBackgroundColor=none;fillColor=none;fontSize=12;align=right;" vertex="1" parent="nAowUgFZZCZa8e_7j0hr-621">
          <mxGeometry x="1015" y="435" width="5" height="170" as="geometry" />
        </mxCell>
        <mxCell id="nAowUgFZZCZa8e_7j0hr-620" value="" style="line;strokeWidth=3;direction=south;html=1;shadow=0;labelBackgroundColor=none;fillColor=none;fontSize=12;align=right;" vertex="1" parent="nAowUgFZZCZa8e_7j0hr-621">
          <mxGeometry x="1015" y="645" width="5" height="120" as="geometry" />
        </mxCell>
      </root>
    </mxGraphModel>
  </diagram>
</mxfile>
